 <svg  version="1.0" xmlns="http://www.w3.org/2000/svg"  width="300.000000pt" height="169.000000pt" viewBox="0 0 300.000000 169.000000"  preserveAspectRatio="xMidYMid meet">  <g transform="translate(0.000000,169.000000) scale(0.050000,-0.050000)" fill="#fcfcfc" stroke="none"> <path d="M5344 3299 c-26 -10 -41 -28 -33 -40 9 -14 25 -10 50 12 39 35 89 22 66 -17 -8 -15 -2 -14 15 2 49 46 -18 75 -98 43z"/> <path d="M4959 2343 c-41 -33 -49 -57 -49 -152 l0 -112 -56 12 c-160 36 -252 -249 -126 -389 57 -62 561 -55 625 9 84 84 43 187 -96 242 -53 22 -77 43 -73 65 10 50 87 50 134 -1 l42 -45 0 53 c0 45 -11 55 -72 67 -201 37 -257 -136 -78 -241 93 -54 118 -116 58 -139 -54 -21 -85 -13 -125 29 l-38 41 -11 -41 c-5 -23 -25 -41 -42 -41 -28 0 -32 39 -32 299 0 302 16 368 70 294 29 -39 70 -44 70 -8 -1 84 -125 120 -201 58z m-59 -463 c0 -158 -1 -160 -50 -160 -56 0 -90 60 -90 160 0 100 34 160 90 160 49 0 50 -2 50 -160z"/> <path d="M560 2280 c0 -11 12 -20 28 -20 61 0 70 -50 58 -306 -9 -188 -19 -254 -38 -254 -14 0 -31 -9 -38 -20 -8 -12 26 -20 89 -20 55 0 101 9 101 20 0 11 -13 20 -30 20 -25 0 -30 39 -30 233 0 129 3 230 8 225 4 -4 90 -119 191 -254 237 -320 241 -319 255 56 5 160 18 293 28 297 48 18 9 43 -67 42 -72 0 -80 -4 -53 -25 32 -24 68 -434 39 -434 -6 0 -87 104 -181 230 l-169 230 -96 0 c-52 0 -95 -9 -95 -20z"/> <path d="M3380 2280 c0 -11 14 -20 30 -20 35 0 33 15 39 -283 5 -232 -10 -316 -46 -260 -13 19 -22 21 -32 5 -31 -50 -51 9 -51 149 0 175 -35 229 -148 229 -81 0 -173 -66 -140 -99 16 -17 29 -14 47 8 33 39 89 40 120 2 42 -50 14 -95 -79 -131 -71 -27 -95 -49 -112 -101 -39 -116 -62 -89 -72 83 -8 140 -16 170 -55 201 -80 65 -241 26 -241 -57 0 -29 4 -29 37 1 52 48 121 42 141 -12 23 -63 8 -91 -59 -105 -76 -17 -159 -84 -159 -128 0 -87 44 -95 540 -98 324 -1 459 4 435 18 -69 39 -50 278 23 278 37 0 68 -16 89 -45 30 -44 31 -42 32 50 1 52 -8 95 -19 95 -11 0 -20 -9 -20 -20 0 -11 -31 -20 -70 -20 l-70 0 0 110 0 110 89 0 c80 0 94 -7 121 -60 42 -81 50 -76 50 30 l0 90 -210 0 c-127 0 -210 -8 -210 -20z m-544 -485 c-5 -54 -15 -66 -61 -71 -66 -8 -81 79 -20 114 65 38 88 26 81 -43z m384 -6 c0 -66 -4 -71 -55 -65 -66 7 -86 71 -33 110 62 45 88 31 88 -45z"/> <path d="M1315 2072 c-19 -14 -35 -43 -35 -62 0 -34 2 -34 37 -3 69 62 163 30 163 -57 0 -33 -20 -47 -89 -66 -104 -27 -172 -107 -138 -161 40 -63 108 -83 180 -53 40 16 71 20 78 9 16 -27 117 -23 145 5 34 34 30 66 -5 37 -51 -43 -71 -2 -71 147 0 203 -132 305 -265 204z m161 -277 c-5 -53 -15 -66 -58 -71 -70 -8 -90 44 -38 96 63 63 104 52 96 -25z"/> <path d="M1793 2063 c-36 -39 -44 -83 -15 -83 10 0 23 14 29 30 17 45 108 37 134 -11 32 -60 18 -80 -82 -119 -205 -80 -172 -224 50 -220 67 1 138 1 159 0 44 -2 107 52 85 73 -7 8 -24 4 -37 -9 -46 -46 -56 -23 -56 127 0 217 -153 338 -267 212z m163 -268 c-8 -85 -116 -113 -116 -30 0 57 34 95 85 95 30 0 36 -13 31 -65z"/> <path d="M2151 2069 c-17 -18 -31 -40 -31 -50 0 -25 34 -24 50 1 22 36 47 3 129 -174 89 -189 89 -317 0 -341 -22 -5 -39 -17 -39 -25 0 -8 -24 -68 -54 -132 l-53 -118 -46 105 c-60 137 -74 133 -103 -35 -30 -176 -30 -180 4 -180 18 0 34 32 43 85 l15 85 32 -71 c43 -95 61 -96 102 -5 l35 76 14 -60 c24 -99 29 -110 53 -110 23 0 19 69 -13 245 -11 59 -8 75 15 75 58 0 101 80 186 344 58 182 96 268 118 272 72 15 25 43 -68 41 -87 -2 -174 -37 -92 -37 50 0 58 -40 31 -152 -31 -133 -40 -134 -101 -4 -88 189 -154 237 -227 165z"/> <path d="M3834 2049 c-95 -96 -94 -243 2 -334 166 -157 386 13 323 249 -38 141 -221 189 -325 85z m193 -19 c69 -69 64 -236 -9 -302 -77 -70 -166 42 -151 191 12 123 92 179 160 111z"/> <path d="M4276 2039 c-56 -56 -60 -69 -52 -170 26 -310 396 -283 396 28 0 190 -210 276 -344 142z m213 -23 c99 -143 -16 -389 -129 -276 -81 81 -36 320 60 320 21 0 52 -20 69 -44z"/> <path d="M1330 1300 c-38 -76 -70 -148 -70 -160 0 -34 49 -22 75 19 29 47 121 43 148 -6 16 -28 77 -48 77 -25 0 15 -145 312 -152 312 -4 0 -39 -63 -78 -140z"/> <path d="M1644 1288 l6 -158 80 7 c216 18 208 268 -9 297 l-83 12 6 -158z m145 61 c58 -59 26 -149 -53 -149 -29 0 -36 17 -36 90 0 97 30 117 89 59z"/> <path d="M2464 1287 c5 -124 12 -157 36 -157 49 0 43 297 -6 306 -32 7 -35 -8 -30 -149z"/> <path d="M2664 1285 c7 -182 58 -227 76 -67 l10 89 76 -94 c101 -123 106 -120 105 62 -2 174 -51 229 -71 79 l-10 -76 -79 81 c-107 109 -114 105 -107 -74z"/> <path d="M3155 1425 c-23 -51 -3 -295 25 -295 17 0 33 20 36 45 4 27 21 45 42 45 92 0 134 136 58 189 -46 32 -148 42 -161 16z m119 -67 c32 -32 10 -78 -36 -78 -24 0 -38 14 -38 37 0 61 35 80 74 41z"/> <path d="M3525 1294 c-36 -79 -66 -151 -65 -159 0 -28 56 -15 67 15 7 19 38 30 80 30 43 0 73 -11 80 -30 10 -25 73 -45 73 -23 0 24 -144 313 -156 312 -8 0 -43 -65 -79 -145z"/> <path d="M3880 1280 c0 -129 6 -160 30 -160 22 0 30 23 30 90 0 112 4 112 111 -5 l87 -95 1 165 c1 134 -5 165 -29 165 -22 0 -30 -23 -30 -84 l0 -84 -86 84 c-113 111 -114 110 -114 -76z"/> <path d="M4280 1280 l0 -160 80 0 c67 0 80 7 80 40 0 29 -13 40 -50 40 -31 0 -50 11 -50 30 0 19 19 30 52 30 32 0 48 9 42 25 -4 14 -28 23 -51 20 -31 -3 -43 6 -43 35 0 29 13 40 50 40 31 0 50 11 50 30 0 22 -22 30 -80 30 l-80 0 0 -160z"/> <path d="M4569 1414 c-6 -14 -8 -84 -4 -155 l5 -129 90 0 c69 0 91 8 96 35 5 27 -7 35 -55 35 l-61 0 0 120 c0 116 -42 171 -71 94z"/> </g> </svg> 