<?xml version="1.0" standalone="no"?>
<!DOCTYPE svg PUBLIC "-//W3C//DTD SVG 20010904//EN"
 "http://www.w3.org/TR/2001/REC-SVG-20010904/DTD/svg10.dtd">
<svg version="1.0" xmlns="http://www.w3.org/2000/svg"
 width="300.000000pt" height="169.000000pt" viewBox="0 0 300.000000 169.000000"
 preserveAspectRatio="xMidYMid meet">
<metadata>
Created by potrace 1.10, written by Peter Selinger 2001-2011
</metadata>
<g transform="translate(0.000000,169.000000) scale(0.050000,-0.050000)"
fill="#ef0b0b" stroke="none">
<path d="M5344 3299 c-26 -10 -41 -28 -33 -40 9 -14 25 -10 50 12 39 35 89 22
66 -17 -8 -15 -2 -14 15 2 49 46 -18 75 -98 43z"/>
<path d="M2820 2780 c0 -11 9 -20 21 -20 25 0 119 -91 119 -116 0 -10 -43 -14
-95 -10 -100 9 -225 -38 -241 -91 -7 -21 1 -21 39 3 113 72 271 47 356 -55 14
-17 74 -45 133 -62 107 -31 228 -137 228 -199 0 -15 10 -34 23 -42 16 -10 18
8 8 63 -21 111 -62 181 -130 221 -108 64 53 116 186 60 101 -41 92 -2 -10 50
-65 33 -109 40 -191 34 l-107 -9 12 63 c17 87 -43 143 -62 57 -28 -132 -38
-140 -84 -65 -58 93 -205 178 -205 118z"/>
<path d="M1310 2398 c-6 -16 -9 -187 -5 -379 l5 -349 50 0 50 0 0 215 c0 118
5 215 11 215 7 0 96 -95 198 -211 288 -326 314 -303 319 286 l2 245 -72 0 -73
0 8 -280 c8 -304 7 -310 -61 -218 -25 34 -115 140 -200 235 -85 95 -169 195
-188 221 -25 38 -35 42 -44 20z"/>
<path d="M2286 2396 c-23 -29 -38 -60 -204 -436 -66 -148 -112 -278 -103 -287
34 -34 92 0 137 82 l47 85 180 0 179 0 31 -75 c36 -85 58 -104 122 -105 61 0
65 -16 -111 390 -162 373 -210 432 -278 346z m130 -292 c60 -145 65 -137 -81
-148 -134 -11 -134 -11 -62 160 64 150 77 149 143 -12z"/>
<path d="M2819 2172 c-126 -264 -132 -288 -91 -382 l27 -60 22 55 c22 54 24
55 208 55 l186 0 40 -85 c37 -80 149 -139 149 -78 0 28 -280 686 -305 718 -63
80 -114 32 -236 -223z m285 -184 c5 -25 -18 -31 -120 -34 -145 -5 -145 -8 -51
197 l54 118 56 -125 c30 -68 58 -138 61 -156z"/>
<path d="M3440 2400 c0 -12 72 -120 160 -240 l160 -219 0 -230 c0 -184 9 -256
43 -354 34 -100 40 -151 31 -274 -17 -228 55 -343 216 -343 l52 0 -6 440 c-5
397 -9 440 -39 440 -96 0 -97 -3 -98 -377 0 -315 -3 -349 -30 -314 -24 31 -29
128 -29 521 l0 483 156 218 c208 292 198 269 116 269 -66 0 -78 -11 -205 -193
-154 -221 -119 -226 -302 40 -100 145 -225 219 -225 133z"/>
<path d="M4183 2068 c-179 -388 -176 -379 -133 -395 50 -19 83 5 121 88 l35
79 187 0 186 0 32 -74 c35 -84 59 -105 124 -106 51 0 56 22 21 86 -13 24 -84
184 -157 354 -192 445 -196 444 -416 -32z m274 57 c26 -63 52 -126 57 -140 8
-18 -24 -25 -121 -25 -149 0 -144 -18 -56 185 53 121 63 119 120 -20z"/>
<path d="M3409 2031 c-118 -118 -29 -271 154 -264 l107 4 -1 107 c-2 177 -149
263 -260 153z m160 -62 c38 -39 38 -51 5 -97 -37 -51 -122 -35 -131 24 -12 89
65 133 126 73z"/>
<path d="M4266 1621 c-212 -130 -149 -385 117 -471 157 -51 197 -81 197 -149
0 -144 -200 -184 -301 -59 -57 70 -139 69 -139 -2 0 -174 338 -266 480 -130
178 171 111 360 -158 448 -154 50 -187 77 -187 152 0 154 223 169 305 20 44
-80 127 -85 136 -8 20 168 -282 301 -450 199z"/>
<path d="M1308 1591 c-5 -12 -6 -206 -3 -432 l5 -409 65 -6 65 -7 0 202 0 201
219 0 c241 0 302 24 260 101 -18 35 -44 39 -250 39 l-229 0 0 100 0 100 286 0
c292 0 394 29 369 104 -9 29 -776 36 -787 7z"/>
<path d="M2284 1599 c-433 -174 -332 -821 133 -855 397 -29 612 424 350 736
-101 120 -336 178 -483 119z m330 -60 c64 -25 140 -91 171 -149 11 -22 -12 -7
-53 34 -44 46 -105 83 -157 96 -122 32 -131 37 -71 38 29 1 79 -8 110 -19z
m33 -105 c83 -63 121 -165 108 -285 -44 -386 -615 -350 -615 39 0 262 297 406
507 246z"/>
<path d="M3254 1581 c-304 -98 -390 -523 -148 -735 327 -287 816 90 646 497
-78 185 -312 297 -498 238z m261 -141 c266 -162 151 -560 -161 -560 -304 0
-403 432 -130 567 90 44 212 41 291 -7z"/>
<path d="M4729 878 c-21 -33 26 -71 53 -44 23 23 9 66 -22 66 -10 0 -24 -10
-31 -22z"/>
</g>
</svg>
